<svg width="513" height="513" viewBox="0 0 513 513" fill="none" xmlns="http://www.w3.org/2000/svg">
<path fill-rule="evenodd" clip-rule="evenodd" d="M256.494 64.247V128.494H192.241H127.988L63.994 192.494L0 256.494H64.247H128.494V320.747V385L192.494 448.994L256.494 512.988V448.741V384.494H320.747H385L448.994 320.494L512.988 256.494H448.741H384.494V192.241V127.988L320.494 63.994L256.494 0V64.247ZM264.817 216.937L272.607 240.381L296.051 248.171C308.944 252.456 319.494 256.201 319.494 256.494C319.494 256.787 308.944 260.532 296.051 264.817L272.607 272.607L264.817 296.051C260.532 308.944 256.792 319.494 256.507 319.494C256.221 319.494 252.389 308.828 247.991 295.792L239.994 272.09L217.244 264.558C204.732 260.416 194.494 256.787 194.494 256.494C194.494 256.201 204.732 252.572 217.244 248.43L239.994 240.898L247.991 217.196C252.389 204.16 256.221 193.494 256.507 193.494C256.792 193.494 260.532 204.044 264.817 216.937Z" fill="white"/>
</svg>
